<svg id="Calque_1" data-name="Calque 1" xmlns="http://www.w3.org/2000/svg" viewBox="0 0 1095.74 417.04"><defs><style>.cls-1{fill:#79c059;}.cls-2{fill:#333;}</style></defs><path class="cls-1" d="M221.18,73a31.24,31.24,0,1,0,31.23,31.24A31.24,31.24,0,0,0,221.18,73Zm0,29.75a11,11,0,1,1,11-11A11,11,0,0,1,221.18,102.79Z"/><rect class="cls-1" x="220.68" y="131.05" width="1" height="18.84"/><path class="cls-1" d="M235.56,160.3a14.38,14.38,0,1,1-14.38-14.38A14.38,14.38,0,0,1,235.56,160.3Z"/><path class="cls-1" d="M221.18,351.18A31.24,31.24,0,1,0,190,319.94,31.23,31.23,0,0,0,221.18,351.18Zm0-29.75a11,11,0,1,1-11,11A11,11,0,0,1,221.18,321.43Z"/><rect class="cls-1" x="220.68" y="274.33" width="1" height="18.84"/><path class="cls-1" d="M206.8,263.92a14.38,14.38,0,1,1,14.38,14.38A14.38,14.38,0,0,1,206.8,263.92Z"/><path class="cls-1" d="M122.84,113.77a31.24,31.24,0,1,0,44.18,0A31.26,31.26,0,0,0,122.84,113.77Zm21,21a11,11,0,1,1,0-15.52A11,11,0,0,1,143.88,134.81Z"/><rect class="cls-1" x="170.02" y="152.03" width="1" height="18.84" transform="translate(-64.22 167.89) rotate(-45.01)"/><path class="cls-1" d="M194.71,165.31a14.38,14.38,0,1,1-20.33,0A14.36,14.36,0,0,1,194.71,165.31Z"/><path class="cls-1" d="M319.51,310.44a31.23,31.23,0,1,0-44.17,0A31.23,31.23,0,0,0,319.51,310.44Zm-21-21a11,11,0,1,1,0,15.52A11,11,0,0,1,298.48,289.41Z"/><rect class="cls-1" x="271.34" y="253.35" width="1" height="18.84" transform="translate(-106.19 269.19) rotate(-45)"/><path class="cls-1" d="M247.64,258.91a14.38,14.38,0,1,1,20.34,0A14.38,14.38,0,0,1,247.64,258.91Z"/><path class="cls-1" d="M82.11,212.11a31.24,31.24,0,1,0,31.24-31.23A31.24,31.24,0,0,0,82.11,212.11Zm29.75,0a11,11,0,1,1-11-11A11,11,0,0,1,111.86,212.11Z"/><rect class="cls-1" x="140.12" y="211.61" width="18.84" height="1"/><path class="cls-1" d="M169.37,197.73A14.38,14.38,0,1,1,155,212.11,14.38,14.38,0,0,1,169.37,197.73Z"/><path class="cls-1" d="M360.24,212.11A31.23,31.23,0,1,0,329,243.35,31.23,31.23,0,0,0,360.24,212.11Zm-29.74,0a11,11,0,1,1,11,11A11,11,0,0,1,330.5,212.11Z"/><rect class="cls-1" x="283.4" y="211.61" width="18.84" height="1"/><path class="cls-1" d="M273,226.49a14.38,14.38,0,1,1,14.39-14.38A14.38,14.38,0,0,1,273,226.49Z"/><path class="cls-1" d="M122.84,310.45a31.23,31.23,0,1,0,0-44.17A31.26,31.26,0,0,0,122.84,310.45Zm21-21a11,11,0,1,1-15.52,0A11,11,0,0,1,143.88,289.41Z"/><rect class="cls-1" x="161.1" y="262.27" width="18.84" height="1" transform="translate(-135.86 197.54) rotate(-45)"/><path class="cls-1" d="M174.38,238.58a14.38,14.38,0,1,1,0,20.33A14.36,14.36,0,0,1,174.38,238.58Z"/><path class="cls-1" d="M319.51,113.78a31.23,31.23,0,1,0,0,44.17A31.23,31.23,0,0,0,319.51,113.78Zm-21,21a11,11,0,1,1,15.51,0A11,11,0,0,1,298.48,134.81Z"/><rect class="cls-1" x="262.42" y="160.96" width="18.83" height="1" transform="translate(-34.55 239.51) rotate(-45)"/><path class="cls-1" d="M268,185.65a14.38,14.38,0,1,1,0-20.34A14.37,14.37,0,0,1,268,185.65Z"/><path class="cls-1" d="M466,142.43h18.36v12.92l.34.34a32.48,32.48,0,0,1,11.56-11.47,30.77,30.77,0,0,1,15.81-4.17q14.44,0,22.78,7.48T543.16,170v60.35H523.78V175.07q-.35-10.37-4.42-15t-12.75-4.68a21.06,21.06,0,0,0-8.84,1.79,19.07,19.07,0,0,0-6.63,4.93,23.18,23.18,0,0,0-4.25,7.39,26.44,26.44,0,0,0-1.53,9v51.85H466Z"/><path class="cls-1" d="M640.57,210.77a10.33,10.33,0,0,0,.93,5.1q.94,1.53,3.66,1.53h2a12.52,12.52,0,0,0,2.72-.34v13.43c-.68.23-1.56.48-2.63.77s-2.19.53-3.32.76a33.22,33.22,0,0,1-3.4.51c-1.13.11-2.1.17-2.89.17a18.65,18.65,0,0,1-9.86-2.38q-3.92-2.38-5.1-8.33a34.27,34.27,0,0,1-14.2,8.16,55.88,55.88,0,0,1-16.23,2.55,40,40,0,0,1-11.39-1.61,30.12,30.12,0,0,1-9.61-4.76,23,23,0,0,1-6.63-8A24.67,24.67,0,0,1,562.2,207q0-8.16,3-13.26a22.07,22.07,0,0,1,7.83-8,35.32,35.32,0,0,1,10.88-4.16q6-1.27,12.15-2a98.44,98.44,0,0,1,10-1.44,47.53,47.53,0,0,0,8.41-1.45,12.89,12.89,0,0,0,5.78-3.14q2.13-2.13,2.13-6.38a9.88,9.88,0,0,0-1.79-6.12,12,12,0,0,0-4.42-3.65,18.94,18.94,0,0,0-5.86-1.7,45.82,45.82,0,0,0-6.12-.43q-8.16,0-13.43,3.4t-6,10.54H565.43q.51-8.49,4.08-14.11a28.24,28.24,0,0,1,9.09-9,37.26,37.26,0,0,1,12.5-4.76,74.18,74.18,0,0,1,14.28-1.36,59.9,59.9,0,0,1,12.75,1.36,36.27,36.27,0,0,1,11.3,4.42,24.45,24.45,0,0,1,8.08,7.91,21.66,21.66,0,0,1,3.06,11.81Zm-19.38-24.48a23.53,23.53,0,0,1-10.88,3.49q-6.46.58-12.92,1.78a40.67,40.67,0,0,0-5.95,1.45,17.66,17.66,0,0,0-5.1,2.55,11.16,11.16,0,0,0-3.49,4.25,14.5,14.5,0,0,0-1.27,6.37,8.12,8.12,0,0,0,1.87,5.44,13.59,13.59,0,0,0,4.5,3.49,21,21,0,0,0,5.78,1.78,36,36,0,0,0,5.7.51,31.36,31.36,0,0,0,7-.85,23.17,23.17,0,0,0,7.05-2.89,18.62,18.62,0,0,0,5.53-5.18,13.16,13.16,0,0,0,2.21-7.74Z"/><path class="cls-1" d="M656,142.43h14.62V116.08H690v26.35h17.51v14.45H690V203.8a46.88,46.88,0,0,0,.25,5.27,9.11,9.11,0,0,0,1.19,3.74,5.72,5.72,0,0,0,2.81,2.3,13.84,13.84,0,0,0,5.1.76c1.36,0,2.72,0,4.08-.08a20.51,20.51,0,0,0,4.08-.6v15l-6.29.68a56.18,56.18,0,0,1-6.29.34,43.1,43.1,0,0,1-12.33-1.44,16.57,16.57,0,0,1-7.31-4.25,14.82,14.82,0,0,1-3.57-7.06,53,53,0,0,1-1.1-9.69V156.88H656Z"/><path class="cls-1" d="M802.07,230.32H783V218.08h-.34a26.71,26.71,0,0,1-10.63,10.63,28.85,28.85,0,0,1-14.36,4q-17.34,0-25.08-8.58t-7.73-25.93V142.43h19.38v53.89q0,11.56,4.42,16.32t12.41,4.76a24.43,24.43,0,0,0,10.2-1.87,18,18,0,0,0,6.63-5,19.29,19.29,0,0,0,3.65-7.57,39,39,0,0,0,1.11-9.52v-51h19.38Z"/><path class="cls-1" d="M825.87,142.43h18.19v17h.34a19.57,19.57,0,0,1,3.31-7,32.2,32.2,0,0,1,5.95-6.2,30.14,30.14,0,0,1,7.74-4.51,23.2,23.2,0,0,1,8.67-1.7,42.89,42.89,0,0,1,4.67.17l2.64.34v18.7c-1.36-.22-2.75-.42-4.17-.59a34.93,34.93,0,0,0-4.16-.26,22.19,22.19,0,0,0-9.27,2,21.19,21.19,0,0,0-7.56,5.78,28.06,28.06,0,0,0-5.1,9.43,40.75,40.75,0,0,0-1.87,12.92v41.82H825.87Z"/><path class="cls-1" d="M962.71,210.77a10.31,10.31,0,0,0,.94,5.1c.62,1,1.84,1.53,3.65,1.53h2a12.45,12.45,0,0,0,2.72-.34v13.43c-.68.23-1.56.48-2.63.77s-2.18.53-3.32.76a32.81,32.81,0,0,1-3.4.51c-1.13.11-2.09.17-2.89.17a18.68,18.68,0,0,1-9.86-2.38q-3.9-2.38-5.1-8.33a34.23,34.23,0,0,1-14.19,8.16,55.9,55.9,0,0,1-16.24,2.55A40.1,40.1,0,0,1,903,231.09a30.07,30.07,0,0,1-9.6-4.76,22.77,22.77,0,0,1-6.63-8A24.54,24.54,0,0,1,884.34,207q0-8.16,3-13.26a22,22,0,0,1,7.82-8A35.51,35.51,0,0,1,906,181.62q6-1.27,12.15-2a98.84,98.84,0,0,1,10-1.44,47.65,47.65,0,0,0,8.42-1.45,13,13,0,0,0,5.78-3.14c1.42-1.42,2.12-3.55,2.12-6.38a9.94,9.94,0,0,0-1.78-6.12,12,12,0,0,0-4.42-3.65,19,19,0,0,0-5.87-1.7,45.82,45.82,0,0,0-6.12-.43q-8.16,0-13.43,3.4T907,169.29H887.57q.51-8.49,4.08-14.11a28.27,28.27,0,0,1,9.1-9,37.21,37.21,0,0,1,12.49-4.76,74.18,74.18,0,0,1,14.28-1.36,59.9,59.9,0,0,1,12.75,1.36,36.23,36.23,0,0,1,11.31,4.42,24.52,24.52,0,0,1,8.07,7.91,21.66,21.66,0,0,1,3.06,11.81Zm-19.38-24.48a23.49,23.49,0,0,1-10.88,3.49q-6.45.58-12.92,1.78a40.67,40.67,0,0,0-5.95,1.45,17.92,17.92,0,0,0-5.1,2.55,11.14,11.14,0,0,0-3.48,4.25,14.5,14.5,0,0,0-1.28,6.37,8.17,8.17,0,0,0,1.87,5.44,13.53,13.53,0,0,0,4.51,3.49,20.85,20.85,0,0,0,5.78,1.78,35.75,35.75,0,0,0,5.69.51,31.3,31.3,0,0,0,7-.85,23.22,23.22,0,0,0,7.06-2.89,18.58,18.58,0,0,0,5.52-5.18,13.09,13.09,0,0,0,2.21-7.74Z"/><path class="cls-1" d="M987.53,108.94h19.38V230.32H987.53Z"/><path class="cls-2" d="M466.7,300.64a12.64,12.64,0,0,0,1.28,5.08,12.1,12.1,0,0,0,7.12,6.12,16.43,16.43,0,0,0,5.2.8,27.55,27.55,0,0,0,4.28-.36,14.87,14.87,0,0,0,4.24-1.32,8.72,8.72,0,0,0,3.24-2.68,7.11,7.11,0,0,0,1.28-4.36,6.9,6.9,0,0,0-1.2-4.24,8.51,8.51,0,0,0-3.2-2.56,21.21,21.21,0,0,0-4.52-1.52c-1.68-.37-3.4-.75-5.16-1.12s-3.49-.8-5.2-1.28a17.48,17.48,0,0,1-4.56-2,9.48,9.48,0,0,1-3.2-3.28,10.05,10.05,0,0,1-1.2-5.16,8.93,8.93,0,0,1,1.36-5.08,10.18,10.18,0,0,1,3.48-3.24,15.84,15.84,0,0,1,4.76-1.72,27,27,0,0,1,5.28-.52,23.87,23.87,0,0,1,6,.72,12.93,12.93,0,0,1,4.8,2.32,11.05,11.05,0,0,1,3.2,4.08,14.11,14.11,0,0,1,1.16,6h-3a11,11,0,0,0-1-4.8,8.9,8.9,0,0,0-2.56-3.24,10.71,10.71,0,0,0-3.84-1.84,18.45,18.45,0,0,0-4.8-.6,22.28,22.28,0,0,0-4.2.4,12.25,12.25,0,0,0-3.8,1.36,8.56,8.56,0,0,0-2.76,2.48,6.2,6.2,0,0,0-1.08,3.68,6.27,6.27,0,0,0,1.2,4,8.57,8.57,0,0,0,3.16,2.44,21.83,21.83,0,0,0,4.4,1.48l4.92,1.12c2,.37,3.93.81,5.72,1.32a16.21,16.21,0,0,1,4.64,2.08,9.4,9.4,0,0,1,3.08,3.4,11,11,0,0,1,1.12,5.28,9.4,9.4,0,0,1-1.52,5.52,11.66,11.66,0,0,1-3.84,3.48,16.42,16.42,0,0,1-5.16,1.84,30.54,30.54,0,0,1-5.56.52,22.24,22.24,0,0,1-6.52-.92,14.77,14.77,0,0,1-5.24-2.8A13.34,13.34,0,0,1,465,307a15.51,15.51,0,0,1-1.36-6.32Z"/><path class="cls-2" d="M480.3,316.28a23.26,23.26,0,0,1-6.81-1,15.92,15.92,0,0,1-5.59-3,14.4,14.4,0,0,1-3.78-4.94,16.69,16.69,0,0,1-1.46-6.73l0-1h5l.05.95a11.73,11.73,0,0,0,1.17,4.68,11.6,11.6,0,0,0,2.69,3.46,11.22,11.22,0,0,0,3.86,2.16,18.87,18.87,0,0,0,9,.4,13.75,13.75,0,0,0,4-1.23,7.67,7.67,0,0,0,2.88-2.38,6.14,6.14,0,0,0,1.08-3.76,6,6,0,0,0-1-3.64,7.63,7.63,0,0,0-2.83-2.26,20,20,0,0,0-4.31-1.44c-1.67-.37-3.39-.75-5.15-1.12s-3.53-.81-5.26-1.3a18.8,18.8,0,0,1-4.82-2.07,10.54,10.54,0,0,1-3.53-3.62,11.07,11.07,0,0,1-1.34-5.67,10,10,0,0,1,1.53-5.63,11,11,0,0,1,3.82-3.56,16.72,16.72,0,0,1,5.06-1.83,27.23,27.23,0,0,1,11.76.21,14.31,14.31,0,0,1,5.17,2.5,12.22,12.22,0,0,1,3.49,4.45,15.16,15.16,0,0,1,1.25,6.42v1h-5v-1a10.13,10.13,0,0,0-.86-4.37,8,8,0,0,0-2.27-2.88,9.75,9.75,0,0,0-3.49-1.66,19.57,19.57,0,0,0-8.55-.19,11.28,11.28,0,0,0-3.49,1.25A7.46,7.46,0,0,0,470,279.7a5.12,5.12,0,0,0-.9,3.1,5.29,5.29,0,0,0,1,3.38,7.72,7.72,0,0,0,2.79,2.16,21.78,21.78,0,0,0,4.2,1.41l4.92,1.11c2,.37,4,.83,5.77,1.34a17.16,17.16,0,0,1,4.93,2.21,10.5,10.5,0,0,1,3.4,3.76,12.08,12.08,0,0,1,1.24,5.75,10.41,10.41,0,0,1-1.7,6.1,13,13,0,0,1-4.16,3.77,17.26,17.26,0,0,1-5.48,1.95A31.63,31.63,0,0,1,480.3,316.28Zm-15.59-14.64a14,14,0,0,0,1.22,4.9,12.44,12.44,0,0,0,3.25,4.26,13.92,13.92,0,0,0,4.89,2.6,24.94,24.94,0,0,0,11.61.38,15.45,15.45,0,0,0,4.85-1.73,10.71,10.71,0,0,0,3.51-3.18,8.47,8.47,0,0,0,1.34-4.95,10.22,10.22,0,0,0-1-4.81,8.48,8.48,0,0,0-2.76-3,15.41,15.41,0,0,0-4.35-1.95c-1.75-.49-3.65-.93-5.63-1.3l-5-1.12a23,23,0,0,1-4.6-1.55,9.57,9.57,0,0,1-3.52-2.73,8,8,0,0,1-.15-8.88,9.44,9.44,0,0,1,3.08-2.77,13.19,13.19,0,0,1,4.11-1.47,21.48,21.48,0,0,1,9.44.22,11.66,11.66,0,0,1,4.19,2,9.82,9.82,0,0,1,2.85,3.6,11.25,11.25,0,0,1,1,4.23h1.05a12.66,12.66,0,0,0-1-4.58,10.14,10.14,0,0,0-2.92-3.71,11.88,11.88,0,0,0-4.43-2.14,25.38,25.38,0,0,0-10.88-.19,15,15,0,0,0-4.46,1.61,9.17,9.17,0,0,0-3.14,2.93,8,8,0,0,0-1.19,4.52,9.14,9.14,0,0,0,1.06,4.65,8.42,8.42,0,0,0,2.87,2.94,16.66,16.66,0,0,0,4.3,1.85c1.69.47,3.42.9,5.14,1.26l5.17,1.12a21.88,21.88,0,0,1,4.73,1.6,9.51,9.51,0,0,1,3.57,2.86,7.89,7.89,0,0,1,1.4,4.84,8.13,8.13,0,0,1-1.48,5,9.76,9.76,0,0,1-3.6,3,16,16,0,0,1-4.52,1.41,20.87,20.87,0,0,1-9.95-.48,13.1,13.1,0,0,1-9-11.15Z"/><path class="cls-2" d="M533.82,293.76a27,27,0,0,1,1.24-8.28,20.88,20.88,0,0,1,3.64-6.84,17.33,17.33,0,0,1,5.92-4.68,19.84,19.84,0,0,1,16.16,0,17.33,17.33,0,0,1,5.92,4.68,20.88,20.88,0,0,1,3.64,6.84,27,27,0,0,1,1.24,8.28,27.33,27.33,0,0,1-1.24,8.32,20.3,20.3,0,0,1-3.64,6.84,17.47,17.47,0,0,1-5.92,4.64,19.84,19.84,0,0,1-16.16,0,17.47,17.47,0,0,1-5.92-4.64,20.3,20.3,0,0,1-3.64-6.84A27.33,27.33,0,0,1,533.82,293.76Zm3,0a24.21,24.21,0,0,0,1,7.08,19.17,19.17,0,0,0,3,6,14.8,14.8,0,0,0,5,4.2,15.6,15.6,0,0,0,13.6,0,14.8,14.8,0,0,0,5-4.2,19.17,19.17,0,0,0,3-6,24.62,24.62,0,0,0,0-14.16,19.17,19.17,0,0,0-3-6,14.8,14.8,0,0,0-5-4.2,15.6,15.6,0,0,0-13.6,0,14.8,14.8,0,0,0-5,4.2,19.17,19.17,0,0,0-3,6A24.21,24.21,0,0,0,536.86,293.76Z"/><path class="cls-2" d="M552.7,316.28a19.22,19.22,0,0,1-8.52-1.82,18.49,18.49,0,0,1-6.25-4.9,21.23,21.23,0,0,1-3.82-7.18,28.32,28.32,0,0,1-1.29-8.62,28,28,0,0,1,1.29-8.58,21.82,21.82,0,0,1,3.81-7.17,18.42,18.42,0,0,1,6.26-4.95,20.85,20.85,0,0,1,17,0,18.52,18.52,0,0,1,6.26,4.95,21.82,21.82,0,0,1,3.81,7.17,28,28,0,0,1,1.29,8.58,28.36,28.36,0,0,1-1.29,8.62,21.4,21.4,0,0,1-3.82,7.18,18.49,18.49,0,0,1-6.25,4.9A19.22,19.22,0,0,1,552.7,316.28Zm0-43a17.34,17.34,0,0,0-7.64,1.62,16.44,16.44,0,0,0-5.58,4.41,19.9,19.9,0,0,0-3.47,6.52,26.13,26.13,0,0,0-1.19,8,26.6,26.6,0,0,0,1.19,8,19.37,19.37,0,0,0,3.46,6.5,16.42,16.42,0,0,0,5.59,4.38,18.83,18.83,0,0,0,15.28,0,16.64,16.64,0,0,0,5.59-4.37,19.52,19.52,0,0,0,3.46-6.51,26.64,26.64,0,0,0,1.19-8,26.29,26.29,0,0,0-1.19-8,20,20,0,0,0-3.47-6.51,16.44,16.44,0,0,0-5.58-4.41A17.34,17.34,0,0,0,552.7,273.24Zm0,40.4a15.46,15.46,0,0,1-7.27-1.67,15.92,15.92,0,0,1-5.29-4.49,20.08,20.08,0,0,1-3.2-6.35,25.69,25.69,0,0,1,0-14.74,20.4,20.4,0,0,1,3.2-6.35,15.89,15.89,0,0,1,5.29-4.48,16.57,16.57,0,0,1,14.54,0,15.89,15.89,0,0,1,5.29,4.48,20.51,20.51,0,0,1,3.2,6.35,25.69,25.69,0,0,1,0,14.74,20.29,20.29,0,0,1-3.2,6.35A15.92,15.92,0,0,1,560,312,15.46,15.46,0,0,1,552.7,313.64Zm0-37.76a13.37,13.37,0,0,0-6.33,1.45,13.69,13.69,0,0,0-4.63,3.91,18.16,18.16,0,0,0-2.88,5.73,23.55,23.55,0,0,0,0,13.58,18.16,18.16,0,0,0,2.88,5.73,13.83,13.83,0,0,0,4.63,3.92,14.63,14.63,0,0,0,12.66,0,13.93,13.93,0,0,0,4.63-3.92,18.16,18.16,0,0,0,2.88-5.73,23.55,23.55,0,0,0,0-13.58,18.16,18.16,0,0,0-2.88-5.73,13.79,13.79,0,0,0-4.63-3.91A13.43,13.43,0,0,0,552.7,275.88Z"/><path class="cls-2" d="M614.46,257.2v57.12h-3V257.2Z"/><path class="cls-2" d="M615.46,315.32h-5V256.2h5Zm-3-2h1V258.2h-1Z"/><path class="cls-2" d="M688.7,314.32h-3v-8.8h-.16a13.23,13.23,0,0,1-2.28,4.12,15.14,15.14,0,0,1-7.72,5,17.55,17.55,0,0,1-4.72.64,18.59,18.59,0,0,1-6.12-.88,12.07,12.07,0,0,1-4.12-2.32,11.09,11.09,0,0,1-2.52-3.24,15.21,15.21,0,0,1-1.32-3.64,20.64,20.64,0,0,1-.48-3.56c-.06-1.15-.08-2.15-.08-3V273.2h3v26a37.91,37.91,0,0,0,.24,3.88,11.68,11.68,0,0,0,1.4,4.4,10.2,10.2,0,0,0,3.48,3.64,11.88,11.88,0,0,0,6.56,1.52,14.63,14.63,0,0,0,6.2-1.28,13.38,13.38,0,0,0,4.68-3.56,15.7,15.7,0,0,0,2.92-5.44,22.73,22.73,0,0,0,1-6.92V273.2h3Z"/><path class="cls-2" d="M670.78,316.28a19.79,19.79,0,0,1-6.45-.93,13,13,0,0,1-4.46-2.53,12,12,0,0,1-2.74-3.53,16,16,0,0,1-1.41-3.88,22.53,22.53,0,0,1-.5-3.72c-.05-1.14-.08-2.16-.08-3.05V272.2h5v27c0,1,.08,2.3.23,3.78a10.7,10.7,0,0,0,1.29,4,9.26,9.26,0,0,0,3.15,3.28,10.94,10.94,0,0,0,6,1.36,13.6,13.6,0,0,0,5.78-1.19,12.44,12.44,0,0,0,4.33-3.29,14.86,14.86,0,0,0,2.74-5.1,22.06,22.06,0,0,0,.95-6.62V272.2h5v43.12h-5v-5.93c-.21.31-.43.6-.67.89a16.12,16.12,0,0,1-8.23,5.33A19,19,0,0,1,670.78,316.28ZM657.14,274.2v24.44c0,.86,0,1.85.08,2.95a19.91,19.91,0,0,0,.46,3.4,13.58,13.58,0,0,0,1.23,3.39,10.25,10.25,0,0,0,2.3,3,11.09,11.09,0,0,0,3.78,2.12,18,18,0,0,0,5.79.82,16.75,16.75,0,0,0,4.45-.6,14.05,14.05,0,0,0,4-1.8,14.23,14.23,0,0,0,3.22-2.87,12.15,12.15,0,0,0,2-3.46,14.89,14.89,0,0,1-1.92,2.9,14.55,14.55,0,0,1-5,3.82,15.62,15.62,0,0,1-6.62,1.37,13,13,0,0,1-7.11-1.68,11.32,11.32,0,0,1-3.81-4,12.86,12.86,0,0,1-1.52-4.77,39.86,39.86,0,0,1-.24-4v-25Zm29.52,39.12h1V274.2h-1v21.24a23.72,23.72,0,0,1-1,7.22,17,17,0,0,1-.69,1.86h1.74Z"/><path class="cls-2" d="M744.78,275.84h-9v28.72a11,11,0,0,0,.56,3.92,4.26,4.26,0,0,0,1.72,2.16,6.71,6.71,0,0,0,2.8.92,25.15,25.15,0,0,0,3.8.12v2.64a28.32,28.32,0,0,1-4.52,0,9,9,0,0,1-3.88-1.2,7.09,7.09,0,0,1-2.68-3,11.26,11.26,0,0,1-.84-5.52V275.84h-7.6V273.2h7.6V260.4h3v12.8h9Z"/><path class="cls-2" d="M742.67,315.39c-.87,0-1.74,0-2.58-.11a10.16,10.16,0,0,1-4.3-1.34,8,8,0,0,1-3.07-3.41,12.14,12.14,0,0,1-.94-6V276.84h-7.6V272.2h7.6V259.4h5v12.8h9v4.64h-9v27.72a10.16,10.16,0,0,0,.49,3.56,3.3,3.3,0,0,0,1.32,1.67,5.91,5.91,0,0,0,2.39.78,24.5,24.5,0,0,0,3.64.11l1,0v4.61l-.93.07C744.06,315.37,743.36,315.39,742.67,315.39Zm-16.49-40.55h7.6v29.72a10.61,10.61,0,0,0,.73,5.07,6,6,0,0,0,2.3,2.59,8,8,0,0,0,3.46,1.06,24.36,24.36,0,0,0,3.43.09v-.67a20.4,20.4,0,0,1-2.92-.15,7.76,7.76,0,0,1-3.21-1.06,5.27,5.27,0,0,1-2.12-2.65,11.72,11.72,0,0,1-.63-4.28V274.84h9v-.64h-9V261.4h-1v12.8h-7.6Z"/><path class="cls-2" d="M783.1,265.44V257.2h3v8.24Zm0,48.88V273.2h3v41.12Z"/><path class="cls-2" d="M787.14,315.32h-5V272.2h5Zm-3-2h1V274.2h-1Zm3-46.88h-5V256.2h5Zm-3-2h1V258.2h-1Z"/><path class="cls-2" d="M825.9,293.76a27,27,0,0,1,1.24-8.28,20.7,20.7,0,0,1,3.64-6.84A17.33,17.33,0,0,1,836.7,274a19.84,19.84,0,0,1,16.16,0,17.43,17.43,0,0,1,5.92,4.68,20.88,20.88,0,0,1,3.64,6.84,27.28,27.28,0,0,1,1.24,8.28,27.64,27.64,0,0,1-1.24,8.32,20.3,20.3,0,0,1-3.64,6.84,17.57,17.57,0,0,1-5.92,4.64,19.84,19.84,0,0,1-16.16,0,17.47,17.47,0,0,1-5.92-4.64,20.12,20.12,0,0,1-3.64-6.84A27.33,27.33,0,0,1,825.9,293.76Zm3,0a23.88,23.88,0,0,0,1,7.08,19,19,0,0,0,3,6,14.7,14.7,0,0,0,5,4.2,15.6,15.6,0,0,0,13.6,0,14.9,14.9,0,0,0,5-4.2,19.38,19.38,0,0,0,3-6,24.62,24.62,0,0,0,0-14.16,19.38,19.38,0,0,0-3-6,14.9,14.9,0,0,0-5-4.2,15.6,15.6,0,0,0-13.6,0,14.7,14.7,0,0,0-5,4.2,19,19,0,0,0-3,6A23.88,23.88,0,0,0,828.94,293.76Z"/><path class="cls-2" d="M844.78,316.28a19.22,19.22,0,0,1-8.52-1.82,18.4,18.4,0,0,1-6.25-4.9,21.42,21.42,0,0,1-3.83-7.18,28.63,28.63,0,0,1-1.28-8.62,28,28,0,0,1,1.29-8.58A21.82,21.82,0,0,1,830,278a18.42,18.42,0,0,1,6.26-4.95,20.85,20.85,0,0,1,17,0,18.39,18.39,0,0,1,6.25,4.95,21.66,21.66,0,0,1,3.82,7.17,29.31,29.31,0,0,1,0,17.2,21.4,21.4,0,0,1-3.82,7.18,18.49,18.49,0,0,1-6.25,4.9A19.25,19.25,0,0,1,844.78,316.28Zm0-43a17.34,17.34,0,0,0-7.64,1.62,16.47,16.47,0,0,0-5.59,4.41,20.07,20.07,0,0,0-3.46,6.52,26.13,26.13,0,0,0-1.19,8,26.6,26.6,0,0,0,1.19,8,19.37,19.37,0,0,0,3.46,6.5,16.42,16.42,0,0,0,5.59,4.38,18.83,18.83,0,0,0,15.28,0,16.84,16.84,0,0,0,5.59-4.37,19.32,19.32,0,0,0,3.45-6.51,27.38,27.38,0,0,0,0-16,20.14,20.14,0,0,0-3.47-6.51,16.44,16.44,0,0,0-5.58-4.41A17.34,17.34,0,0,0,844.78,273.24Zm0,40.4a15.46,15.46,0,0,1-7.27-1.67,15.92,15.92,0,0,1-5.29-4.49,20.08,20.08,0,0,1-3.2-6.35,25.69,25.69,0,0,1,0-14.74,20.19,20.19,0,0,1,3.2-6.35,15.89,15.89,0,0,1,5.29-4.48,16.55,16.55,0,0,1,14.53,0,15.69,15.69,0,0,1,5.29,4.48,20.08,20.08,0,0,1,3.2,6.35,25.46,25.46,0,0,1,0,14.74,20.27,20.27,0,0,1-3.19,6.35A15.85,15.85,0,0,1,852,312,15.42,15.42,0,0,1,844.78,313.64Zm0-37.76a13.44,13.44,0,0,0-6.34,1.45,13.88,13.88,0,0,0-4.63,3.91,18.59,18.59,0,0,0-2.88,5.73,23.78,23.78,0,0,0,0,13.58,18.59,18.59,0,0,0,2.88,5.73,14,14,0,0,0,4.63,3.92,14.65,14.65,0,0,0,12.67,0,14,14,0,0,0,4.63-3.92,18.16,18.16,0,0,0,2.88-5.73,23.55,23.55,0,0,0,0-13.58,18.37,18.37,0,0,0-2.88-5.73,13.88,13.88,0,0,0-4.63-3.91A13.43,13.43,0,0,0,844.78,275.88Z"/><path class="cls-2" d="M902.78,273.2h3V282H906a13,13,0,0,1,2.28-4.12,14.87,14.87,0,0,1,3.44-3.08,15.2,15.2,0,0,1,4.28-1.92,17.5,17.5,0,0,1,4.72-.64,18.59,18.59,0,0,1,6.12.88,12.07,12.07,0,0,1,4.12,2.32,11.44,11.44,0,0,1,2.52,3.24,15.21,15.21,0,0,1,1.32,3.64,23,23,0,0,1,.48,3.56c0,1.15.08,2.15.08,3v25.44h-3v-26a37.91,37.91,0,0,0-.24-3.88,11.68,11.68,0,0,0-1.4-4.4,10.25,10.25,0,0,0-3.52-3.64,12,12,0,0,0-6.52-1.52,14.59,14.59,0,0,0-6.2,1.28,13.38,13.38,0,0,0-4.68,3.56,15.63,15.63,0,0,0-2.92,5.44,22.73,22.73,0,0,0-1,6.92v22.24h-3Z"/><path class="cls-2" d="M936.34,315.32h-5v-27a35.85,35.85,0,0,0-.24-3.77,10.55,10.55,0,0,0-1.28-4,9.22,9.22,0,0,0-3.19-3.28,11.08,11.08,0,0,0-6-1.36,13.6,13.6,0,0,0-5.78,1.19,12.63,12.63,0,0,0-4.34,3.29,14.77,14.77,0,0,0-2.73,5.1,22.06,22.06,0,0,0-.95,6.62v23.24h-5V272.2h5v5.93c.21-.31.43-.6.66-.88a16.06,16.06,0,0,1,8.23-5.33,18.76,18.76,0,0,1,5-.68,19.78,19.78,0,0,1,6.45.94,13.14,13.14,0,0,1,4.46,2.52,12.28,12.28,0,0,1,2.74,3.52,16.11,16.11,0,0,1,1.4,3.89,22.87,22.87,0,0,1,.51,3.72c0,1.19.08,2.19.08,3.05Zm-3-2h1V288.88c0-.82,0-1.81-.08-2.95a21,21,0,0,0-.46-3.4,14.53,14.53,0,0,0-1.23-3.4,10.53,10.53,0,0,0-2.3-2.95,11.36,11.36,0,0,0-3.78-2.12,18,18,0,0,0-5.79-.82,16.49,16.49,0,0,0-4.46.61,14.15,14.15,0,0,0-4,1.79,14,14,0,0,0-3.21,2.88,12.09,12.09,0,0,0-2,3.45,15.78,15.78,0,0,1,1.92-2.89,14.52,14.52,0,0,1,5-3.83,15.62,15.62,0,0,1,6.62-1.37,13,13,0,0,1,7.06,1.68,11.27,11.27,0,0,1,3.85,4,12.55,12.55,0,0,1,1.52,4.78c.16,1.54.25,2.89.25,4Zm-29.52,0h1V292.08a24,24,0,0,1,1-7.22c.21-.64.44-1.26.7-1.86h-1.74v-8.8h-1Z"/><path class="cls-2" d="M977.74,300.64a12.48,12.48,0,0,0,1.28,5.08,12.1,12.1,0,0,0,7.12,6.12,16.43,16.43,0,0,0,5.2.8,27.55,27.55,0,0,0,4.28-.36,14.87,14.87,0,0,0,4.24-1.32,8.88,8.88,0,0,0,3.24-2.68,7.11,7.11,0,0,0,1.28-4.36,6.9,6.9,0,0,0-1.2-4.24,8.51,8.51,0,0,0-3.2-2.56,21.4,21.4,0,0,0-4.52-1.52c-1.68-.37-3.4-.75-5.16-1.12s-3.5-.8-5.2-1.28a17.48,17.48,0,0,1-4.56-2,9.39,9.39,0,0,1-3.2-3.28,10.05,10.05,0,0,1-1.2-5.16,8.93,8.93,0,0,1,1.36-5.08,10,10,0,0,1,3.48-3.24,15.84,15.84,0,0,1,4.76-1.72,27,27,0,0,1,5.28-.52,23.93,23.93,0,0,1,6,.72,12.93,12.93,0,0,1,4.8,2.32,11.16,11.16,0,0,1,3.2,4.08,14.11,14.11,0,0,1,1.16,6h-3a11,11,0,0,0-1-4.8,9,9,0,0,0-2.56-3.24,10.71,10.71,0,0,0-3.84-1.84,18.57,18.57,0,0,0-4.8-.6,22.28,22.28,0,0,0-4.2.4,12.16,12.16,0,0,0-3.8,1.36,8.56,8.56,0,0,0-2.76,2.48,6.2,6.2,0,0,0-1.08,3.68,6.27,6.27,0,0,0,1.2,4,8.57,8.57,0,0,0,3.16,2.44,21.62,21.62,0,0,0,4.4,1.48l4.92,1.12q3,.56,5.72,1.32a16.34,16.34,0,0,1,4.64,2.08,9.49,9.49,0,0,1,3.08,3.4,11.16,11.16,0,0,1,1.12,5.28,9.4,9.4,0,0,1-1.52,5.52,11.86,11.86,0,0,1-3.84,3.48,16.42,16.42,0,0,1-5.16,1.84,30.62,30.62,0,0,1-5.56.52,22.24,22.24,0,0,1-6.52-.92,14.77,14.77,0,0,1-5.24-2.8,13.22,13.22,0,0,1-3.52-4.6,15.35,15.35,0,0,1-1.36-6.32Z"/><path class="cls-2" d="M991.34,316.28a23.28,23.28,0,0,1-6.82-1,15.92,15.92,0,0,1-5.59-3,14.4,14.4,0,0,1-3.78-4.94,16.52,16.52,0,0,1-1.45-6.73l0-1h5l.05.95a11.74,11.74,0,0,0,1.18,4.68,11,11,0,0,0,6.54,5.62,18.91,18.91,0,0,0,9,.4,13.75,13.75,0,0,0,4-1.23,7.72,7.72,0,0,0,2.87-2.38,6.14,6.14,0,0,0,1.09-3.76,6,6,0,0,0-1-3.64,7.66,7.66,0,0,0-2.84-2.26,19.72,19.72,0,0,0-4.3-1.44c-1.68-.37-3.39-.75-5.15-1.12s-3.53-.81-5.26-1.3a18.5,18.5,0,0,1-4.82-2.07,10.57,10.57,0,0,1-3.54-3.62,11.17,11.17,0,0,1-1.33-5.67,10,10,0,0,1,1.52-5.63,11.12,11.12,0,0,1,3.82-3.56,16.92,16.92,0,0,1,5.06-1.83,27.28,27.28,0,0,1,11.77.21,14.26,14.26,0,0,1,5.16,2.5,12.11,12.11,0,0,1,3.49,4.45,15.15,15.15,0,0,1,1.26,6.42v1h-5v-1a10.13,10.13,0,0,0-.86-4.37,8,8,0,0,0-2.28-2.88,9.7,9.7,0,0,0-3.48-1.66,19.62,19.62,0,0,0-8.56-.19,11.37,11.37,0,0,0-3.49,1.25,7.56,7.56,0,0,0-2.44,2.19,5.18,5.18,0,0,0-.89,3.1,5.35,5.35,0,0,0,1,3.38,7.67,7.67,0,0,0,2.8,2.16,21.32,21.32,0,0,0,4.2,1.41l4.92,1.11c2,.37,4,.83,5.77,1.34a17.29,17.29,0,0,1,4.93,2.21,10.59,10.59,0,0,1,3.4,3.76,12.08,12.08,0,0,1,1.24,5.75,10.41,10.41,0,0,1-1.71,6.1,12.75,12.75,0,0,1-4.16,3.77,17.12,17.12,0,0,1-5.47,1.95A31.71,31.71,0,0,1,991.34,316.28Zm-15.59-14.64a14,14,0,0,0,1.21,4.9,12.47,12.47,0,0,0,3.26,4.26,13.83,13.83,0,0,0,4.89,2.6,24.94,24.94,0,0,0,11.61.38,15.48,15.48,0,0,0,4.84-1.73,10.74,10.74,0,0,0,3.52-3.18,8.47,8.47,0,0,0,1.34-4.95,10.22,10.22,0,0,0-1-4.81,8.57,8.57,0,0,0-2.76-3,15.48,15.48,0,0,0-4.36-1.95c-1.75-.49-3.64-.93-5.63-1.3l-5-1.12a23.42,23.42,0,0,1-4.6-1.55,9.65,9.65,0,0,1-3.52-2.73,8.06,8.06,0,0,1-.15-8.88,9.54,9.54,0,0,1,3.08-2.77,13.28,13.28,0,0,1,4.11-1.47,21.52,21.52,0,0,1,9.45.22,11.83,11.83,0,0,1,4.19,2,10,10,0,0,1,2.85,3.6,11.44,11.44,0,0,1,1,4.23h1a12.26,12.26,0,0,0-1-4.58,10,10,0,0,0-2.91-3.71,12,12,0,0,0-4.44-2.14,25.33,25.33,0,0,0-10.87-.19,15,15,0,0,0-4.46,1.61,9.08,9.08,0,0,0-3.14,2.93,8,8,0,0,0-1.19,4.52,9,9,0,0,0,1.06,4.65,8.39,8.39,0,0,0,2.86,2.94,16.88,16.88,0,0,0,4.31,1.85c1.69.47,3.42.9,5.13,1.26l5.17,1.12a22,22,0,0,1,4.74,1.6,9.67,9.67,0,0,1,3.57,2.86,7.89,7.89,0,0,1,1.4,4.84,8.13,8.13,0,0,1-1.48,5,9.93,9.93,0,0,1-3.6,3,16,16,0,0,1-4.53,1.41,20.87,20.87,0,0,1-9.95-.48,13.07,13.07,0,0,1-7.7-6.62,13.14,13.14,0,0,1-1.3-4.53Z"/></svg>